<svg xmlns="http://www.w3.org/2000/svg" viewBox="0 0 24 24" width="14" height="14" fill="currentColor" class="ml-1" type="button" aria-haspopup="dialog" aria-expanded="false" aria-controls="radix-:ri:" data-state="closed"><path fill-rule="evenodd" d="M10.944 9.835a1 1 0 11-1.887-.663 3.25 3.25 0 016.316 1.082c0 1.06-.618 1.884-1.57 2.52a5.915 5.915 0 01-1.364.678 1 1 0 11-.633-1.897c.205-.068.552-.222.887-.446.454-.302.68-.604.68-.857a1.25 1.25 0 00-2.43-.417zM11.186 16a1 1 0 112 0v.135a1 1 0 11-2 0V16zM12 22C6.477 22 2 17.523 2 12S6.477 2 12 2s10 4.477 10 10-4.477 10-10 10zm0-2a8 8 0 100-16 8 8 0 000 16z" clip-rule="evenodd"></path></svg>